<svg width="512" height="512" viewBox="0 0 512 512" fill="none" xmlns="http://www.w3.org/2000/svg">
<rect width="512" height="512" fill="black"/>
<path d="M126.455 32.2727C84.8182 32.0909 56.7273 59.3636 56.9091 96.8182C57 131.545 81.0909 156.727 114.091 156.727C134.545 156.727 152.727 146.818 161 130.455H162.273C162.182 167.364 149.364 189.818 125.091 189.818C110.818 189.818 100.545 182 97.5455 168.455H58.7273C62.3636 199.818 87.8182 223.545 125.091 223.545C171.182 223.545 200.909 186.273 200.818 123.091C200.727 55.6364 164.727 32.4545 126.455 32.2727ZM126.727 63.1818C144.818 63.1818 158.182 77.9091 158.364 95.6364C158.455 113.455 144.364 128.182 126.364 128.182C108.182 128.182 95.1818 114 95.0909 95.7273C94.9091 77.5455 108.455 63.1818 126.727 63.1818Z" fill="white"/>
<path d="M382.455 32.2727C340.818 32.0909 312.727 59.3636 312.909 96.8182C313 131.545 337.091 156.727 370.091 156.727C390.545 156.727 408.727 146.818 417 130.455H418.273C418.182 167.364 405.364 189.818 381.091 189.818C366.818 189.818 356.545 182 353.545 168.455H314.727C318.364 199.818 343.818 223.545 381.091 223.545C427.182 223.545 456.909 186.273 456.818 123.091C456.727 55.6364 420.727 32.4545 382.455 32.2727ZM382.727 63.1818C400.818 63.1818 414.182 77.9091 414.364 95.6364C414.455 113.455 400.364 128.182 382.364 128.182C364.182 128.182 351.182 114 351.091 95.7273C350.909 77.5455 364.455 63.1818 382.727 63.1818Z" fill="white"/>
<path d="M385.091 479.545C426.545 479.545 454.727 452.545 454.636 414.909C454.727 379.273 429.818 353.636 396.273 353.636C379.909 353.636 365.818 360.455 359.273 369.636H358.182L363 323H444.364V290.818H330.545L321.727 389L356.727 395.273C362.455 387.545 373.545 382.727 384.545 382.727C403.273 382.818 416.727 396.364 416.727 415.909C416.727 435.273 403.545 448.636 385.091 448.636C369.455 448.636 356.818 438.818 355.909 424.364H317.727C318.455 456.545 346.545 479.545 385.091 479.545Z" fill="#A0A0A0"/>
<circle cx="128" cy="384" r="83" fill="#FF3F3F"/>
</svg>
