<svg width="1266" height="535" viewBox="0 0 1266 535" fill="none" xmlns="http://www.w3.org/2000/svg">
<path d="M588 363.5C621.5 342.5 654.5 346 645 377C633.297 415.188 588 397 588 363.5ZM588 363.5C615 414.5 844.234 491.231 890.5 354.231C942 201.731 1165.5 128.731 1274.5 233.731M131 5.23128C102.167 68.3979 37.1 202.531 7.5 233.731C39 273.731 492 526.731 546 529.731C579.5 495.731 662 273.231 654.5 244.731C631.5 225.231 179.5 -3.26872 131 5.23128Z" stroke="#FF3F3F" stroke-width="10"/>
<path d="M575.311 302.635C555.889 282.556 514.069 243.373 502.166 247.263C487.288 252.125 465.594 285.798 465.311 297.888C465.028 309.978 525.669 327.093 527.482 355.671C528.155 366.28 484.393 468.557 401.134 389.437" stroke="#A0A0A0" stroke-width="10"/>
<path d="M229.5 86.5C202 78.8333 141.7 71.6 120.5 104C94 144.5 184.5 160 185.5 187.5C186.5 215 96.5 237 80 198.5M193 58C173.333 112.333 128.6 224.9 107 240.5" stroke="#C1FF3E" stroke-width="10"/>
<path d="M186 278.544C229.833 252.878 318.3 191.444 321.5 151.044M321.5 151.044C325.5 100.544 268.5 72.0445 242 111.544C215.5 151.044 226 162.544 256.5 164.544C280.9 166.144 310 156.211 321.5 151.044Z" stroke="white" stroke-width="10"/>
<path d="M293 348.267C340.304 329.762 437.281 282.9 446.751 243.496M446.751 243.496C458.59 194.241 406.741 157.187 374.397 192.064C342.052 226.94 350.627 239.939 380.441 246.678C404.291 252.069 434.586 246.803 446.751 243.496Z" stroke="#FF3F3F" stroke-width="10"/>
<path d="M260 296C255.889 292.346 252 296 243 304C240 309.5 249.6 313.3 260 312.5C273 311.5 264.5 300 260 296Z" fill="white" stroke="white" stroke-width="10"/>
</svg>
