<svg width="512" height="512" viewBox="0 0 512 512" fill="none" xmlns="http://www.w3.org/2000/svg">
<rect width="512" height="512" fill="black"/>
<path d="M169.455 54.2727C127.818 54.0909 99.7273 81.3636 99.9091 118.818C100 153.545 124.091 178.727 157.091 178.727C177.545 178.727 195.727 168.818 204 152.455H205.273C205.182 189.364 192.364 211.818 168.091 211.818C153.818 211.818 143.545 204 140.545 190.455H101.727C105.364 221.818 130.818 245.545 168.091 245.545C214.182 245.545 243.909 208.273 243.818 145.091C243.727 77.6364 207.727 54.4545 169.455 54.2727ZM169.727 85.1818C187.818 85.1818 201.182 99.9091 201.364 117.636C201.455 135.455 187.364 150.182 169.364 150.182C151.182 150.182 138.182 136 138.091 117.727C137.909 99.5455 151.455 85.1818 169.727 85.1818Z" fill="white"/>
<path d="M338.455 54.2727C296.818 54.0909 268.727 81.3636 268.909 118.818C269 153.545 293.091 178.727 326.091 178.727C346.545 178.727 364.727 168.818 373 152.455H374.273C374.182 189.364 361.364 211.818 337.091 211.818C322.818 211.818 312.545 204 309.545 190.455H270.727C274.364 221.818 299.818 245.545 337.091 245.545C383.182 245.545 412.909 208.273 412.818 145.091C412.727 77.6364 376.727 54.4545 338.455 54.2727ZM338.727 85.1818C356.818 85.1818 370.182 99.9091 370.364 117.636C370.455 135.455 356.364 150.182 338.364 150.182C320.182 150.182 307.182 136 307.091 117.727C306.909 99.5455 320.455 85.1818 338.727 85.1818Z" fill="white"/>
<path d="M339.091 456.545C380.545 456.545 408.727 429.545 408.636 391.909C408.727 356.273 383.818 330.636 350.273 330.636C333.909 330.636 319.818 337.455 313.273 346.636H312.182L317 300H398.364V267.818H284.545L275.727 366L310.727 372.273C316.455 364.545 327.545 359.727 338.545 359.727C357.273 359.818 370.727 373.364 370.727 392.909C370.727 412.273 357.545 425.636 339.091 425.636C323.455 425.636 310.818 415.818 309.909 401.364H271.727C272.455 433.545 300.545 456.545 339.091 456.545Z" fill="#A0A0A0"/>
<circle cx="171" cy="361" r="83" fill="#FF3F3F"/>
</svg>
